<svg width="1954" height="1954" viewBox="0 0 1954 1954" fill="none" xmlns="http://www.w3.org/2000/svg">
<circle cx="989.473" cy="977" r="943.473" fill="white"/>
<circle cx="976.998" cy="975.49" r="926.789" stroke="url(#paint0_linear_2769_16)" stroke-width="97.403"/>
<path d="M558.816 1536.43H779.079L811.696 1456.22H727.528L989.089 833.388H582.249L488.52 1026.84H779.079L558.816 1536.43Z" fill="url(#paint1_linear_2769_16)"/>
<g filter="url(#filter0_d_2769_16)">
<path d="M985.946 833.388H1061.81L808.553 1456.22H930.589L1146.17 946.63H1432.04L1516.4 753.174H1019.63L985.946 833.388Z" fill="url(#paint2_linear_2769_16)"/>
<path d="M991.513 705.99L958.708 790.922H579.105L625.97 677.679L1038.38 427.603L1338.31 540.845V488.942H1432.04V569.156L1553.89 611.621L1516.4 705.99H991.513Z" fill="url(#paint3_linear_2769_16)"/>
<path d="M1061.81 833.388H985.946L724.385 1456.22H808.553L1061.81 833.388Z" fill="url(#paint4_linear_2769_16)"/>
</g>
<defs>
<filter id="filter0_d_2769_16" x="575.209" y="427.603" width="982.573" height="1036.41" filterUnits="userSpaceOnUse" color-interpolation-filters="sRGB">
<feFlood flood-opacity="0" result="BackgroundImageFix"/>
<feColorMatrix in="SourceAlpha" type="matrix" values="0 0 0 0 0 0 0 0 0 0 0 0 0 0 0 0 0 0 127 0" result="hardAlpha"/>
<feOffset dy="3.89612"/>
<feGaussianBlur stdDeviation="1.94806"/>
<feComposite in2="hardAlpha" operator="out"/>
<feColorMatrix type="matrix" values="0 0 0 0 0 0 0 0 0 0 0 0 0 0 0 0 0 0 0.25 0"/>
<feBlend mode="normal" in2="BackgroundImageFix" result="effect1_dropShadow_2769_16"/>
<feBlend mode="normal" in="SourceGraphic" in2="effect1_dropShadow_2769_16" result="shape"/>
</filter>
<linearGradient id="paint0_linear_2769_16" x1="976.998" y1="0" x2="976.998" y2="1950.98" gradientUnits="userSpaceOnUse">
<stop stop-color="#DB1F2D"/>
<stop offset="1" stop-color="#383675"/>
</linearGradient>
<linearGradient id="paint1_linear_2769_16" x1="738.804" y1="833.388" x2="738.804" y2="1536.43" gradientUnits="userSpaceOnUse">
<stop stop-color="#93294C"/>
<stop offset="1" stop-color="#D81F2E"/>
</linearGradient>
<linearGradient id="paint2_linear_2769_16" x1="1150.37" y1="427.603" x2="749.074" y2="1456.18" gradientUnits="userSpaceOnUse">
<stop stop-color="#3C3573"/>
<stop offset="1" stop-color="#50488E"/>
</linearGradient>
<linearGradient id="paint3_linear_2769_16" x1="1150.37" y1="427.603" x2="749.074" y2="1456.18" gradientUnits="userSpaceOnUse">
<stop stop-color="#3C3573"/>
<stop offset="1" stop-color="#50488E"/>
</linearGradient>
<linearGradient id="paint4_linear_2769_16" x1="1150.37" y1="427.603" x2="749.074" y2="1456.18" gradientUnits="userSpaceOnUse">
<stop stop-color="#3C3573"/>
<stop offset="1" stop-color="#50488E"/>
</linearGradient>
</defs>
</svg>
