<svg width="3622" height="1282" viewBox="0 0 3622 1282" fill="none" xmlns="http://www.w3.org/2000/svg">
<g clip-path="url(#clip0_710_22)">
<path d="M1237 671H1174.81C1169.95 671 1166.37 669.976 1164.07 667.929C1162.02 665.626 1161 662.043 1161 657.181V468.704H1104.57C1099.7 468.704 1096.12 467.681 1093.82 465.633C1091.77 463.33 1090.75 459.747 1090.75 454.885V408.438C1090.75 403.575 1091.77 400.121 1093.82 398.073C1096.12 395.77 1099.7 394.619 1104.57 394.619H1307.25C1312.11 394.619 1315.56 395.77 1317.61 398.073C1319.91 400.121 1321.07 403.575 1321.07 408.438V454.885C1321.07 459.747 1319.91 463.33 1317.61 465.633C1315.56 467.681 1312.11 468.704 1307.25 468.704H1250.82V657.181C1250.82 662.043 1249.67 665.626 1247.36 667.929C1245.32 669.976 1241.86 671 1237 671ZM1590.68 598.45C1590.68 610.222 1588.89 620.97 1585.3 630.694C1581.98 640.163 1575.84 648.352 1566.88 655.262C1558.18 661.915 1546.02 667.161 1530.41 671C1515.06 674.839 1495.48 676.758 1471.68 676.758C1447.88 676.758 1428.18 674.839 1412.57 671C1396.96 667.161 1384.67 661.915 1375.72 655.262C1367.01 648.352 1360.87 640.163 1357.29 630.694C1353.96 620.97 1352.3 610.222 1352.3 598.45V467.553C1352.3 455.781 1353.96 445.161 1357.29 435.692C1360.87 425.967 1367.01 417.65 1375.72 410.741C1384.67 403.831 1396.96 398.457 1412.57 394.619C1428.18 390.78 1447.88 388.861 1471.68 388.861C1495.48 388.861 1515.06 390.78 1530.41 394.619C1546.02 398.457 1558.18 403.831 1566.88 410.741C1575.84 417.65 1581.98 425.967 1585.3 435.692C1588.89 445.161 1590.68 455.781 1590.68 467.553V598.45ZM1439.44 584.631C1439.44 589.749 1441.36 594.099 1445.19 597.682C1449.03 601.009 1457.86 602.672 1471.68 602.672C1485.5 602.672 1494.33 601.009 1498.17 597.682C1502.01 594.099 1503.93 589.749 1503.93 584.631V481.372C1503.93 476.509 1502.01 472.415 1498.17 469.088C1494.33 465.505 1485.5 463.714 1471.68 463.714C1457.86 463.714 1449.03 465.505 1445.19 469.088C1441.36 472.415 1439.44 476.509 1439.44 481.372V584.631ZM1768.19 671H1706C1701.14 671 1697.55 669.976 1695.25 667.929C1693.2 665.626 1692.18 662.043 1692.18 657.181V468.704H1635.75C1630.89 468.704 1627.31 467.681 1625 465.633C1622.96 463.33 1621.93 459.747 1621.93 454.885V408.438C1621.93 403.575 1622.96 400.121 1625 398.073C1627.31 395.77 1630.89 394.619 1635.75 394.619H1838.43C1843.29 394.619 1846.75 395.77 1848.8 398.073C1851.1 400.121 1852.25 403.575 1852.25 408.438V454.885C1852.25 459.747 1851.1 463.33 1848.8 465.633C1846.75 467.681 1843.29 468.704 1838.43 468.704H1782V657.181C1782 662.043 1780.85 665.626 1778.55 667.929C1776.5 669.976 1773.05 671 1768.19 671ZM1974.4 475.23L1956.36 533.577H2016.63L1998.58 475.23C1997.56 472.927 1996.41 471.263 1995.13 470.24C1994.11 469.216 1992.83 468.704 1991.29 468.704H1981.69C1980.16 468.704 1978.75 469.216 1977.47 470.24C1976.45 471.263 1975.42 472.927 1974.4 475.23ZM1952.52 657.181C1952.52 662.043 1951.37 665.626 1949.07 667.929C1947.02 669.976 1943.56 671 1938.7 671H1882.27C1877.41 671 1873.83 669.976 1871.53 667.929C1869.48 665.626 1868.45 662.043 1868.45 657.181V555.841C1868.45 548.164 1869.61 539.335 1871.91 529.355C1874.47 519.374 1878.31 507.73 1883.43 494.423L1916.82 407.286C1918.36 402.936 1920.66 399.737 1923.73 397.689C1927.06 395.642 1931.28 394.619 1936.4 394.619H2039.66C2044.52 394.619 2048.49 395.642 2051.56 397.689C2054.88 399.737 2057.32 402.936 2058.85 407.286L2092.25 494.423C2097.37 507.73 2101.08 519.374 2103.38 529.355C2105.94 539.335 2107.22 548.164 2107.22 555.841V657.181C2107.22 662.043 2106.07 665.626 2103.76 667.929C2101.72 669.976 2098.26 671 2093.4 671H2035.44C2030.32 671 2026.48 669.976 2023.92 667.929C2021.62 665.626 2020.46 662.043 2020.46 657.181V603.44H1952.52V657.181ZM2363.82 671H2168.43C2163.57 671 2159.99 669.976 2157.68 667.929C2155.64 665.626 2154.61 662.043 2154.61 657.181V408.438C2154.61 403.575 2155.64 400.121 2157.68 398.073C2159.99 395.77 2163.57 394.619 2168.43 394.619H2227.93C2232.79 394.619 2236.25 395.77 2238.29 398.073C2240.6 400.121 2241.75 403.575 2241.75 408.438V598.45H2294.34V536.264C2294.34 531.402 2295.36 527.947 2297.41 525.9C2299.71 523.597 2303.3 522.445 2308.16 522.445H2363.82C2368.68 522.445 2372.14 523.597 2374.18 525.9C2376.49 527.947 2377.64 531.402 2377.64 536.264V657.181C2377.64 662.043 2376.49 665.626 2374.18 667.929C2372.14 669.976 2368.68 671 2363.82 671ZM2687.86 671H2594.2C2562.21 671 2538.41 664.602 2522.8 651.807C2507.44 639.011 2499.77 619.306 2499.77 592.692V473.31C2499.77 446.696 2507.44 426.991 2522.8 414.196C2538.41 401.144 2562.21 394.619 2594.2 394.619H2687.86C2692.72 394.619 2696.18 395.77 2698.22 398.073C2700.53 400.121 2701.68 403.575 2701.68 408.438V454.885C2701.68 459.747 2700.53 463.33 2698.22 465.633C2696.18 467.681 2692.72 468.704 2687.86 468.704H2610.7C2602.77 468.704 2596.88 470.368 2593.04 473.694C2589.21 476.765 2587.29 481.5 2587.29 487.897V579.257C2587.29 585.654 2589.21 590.389 2593.04 593.46C2596.88 596.275 2602.77 597.682 2610.7 597.682H2687.86C2692.72 597.682 2696.18 598.834 2698.22 601.137C2700.53 603.184 2701.68 606.639 2701.68 611.501V657.181C2701.68 662.043 2700.53 665.626 2698.22 667.929C2696.18 669.976 2692.72 671 2687.86 671ZM2845.22 475.23L2827.17 533.577H2887.44L2869.4 475.23C2868.38 472.927 2867.22 471.263 2865.94 470.24C2864.92 469.216 2863.64 468.704 2862.11 468.704H2852.51C2850.97 468.704 2849.57 469.216 2848.29 470.24C2847.26 471.263 2846.24 472.927 2845.22 475.23ZM2823.34 657.181C2823.34 662.043 2822.18 665.626 2819.88 667.929C2817.83 669.976 2814.38 671 2809.52 671H2753.09C2748.23 671 2744.64 669.976 2742.34 667.929C2740.29 665.626 2739.27 662.043 2739.27 657.181V555.841C2739.27 548.164 2740.42 539.335 2742.72 529.355C2745.28 519.374 2749.12 507.73 2754.24 494.423L2787.64 407.286C2789.17 402.936 2791.47 399.737 2794.55 397.689C2797.87 395.642 2802.09 394.619 2807.21 394.619H2910.47C2915.33 394.619 2919.3 395.642 2922.37 397.689C2925.7 399.737 2928.13 402.936 2929.67 407.286L2963.06 494.423C2968.18 507.73 2971.89 519.374 2974.19 529.355C2976.75 539.335 2978.03 548.164 2978.03 555.841V657.181C2978.03 662.043 2976.88 665.626 2974.58 667.929C2972.53 669.976 2969.08 671 2964.21 671H2906.25C2901.13 671 2897.29 669.976 2894.73 667.929C2892.43 665.626 2891.28 662.043 2891.28 657.181V603.44H2823.34V657.181ZM3348.41 671H3288.91C3284.04 671 3280.46 669.976 3278.16 667.929C3276.11 665.626 3275.09 662.043 3275.09 657.181V408.438C3275.09 403.575 3276.11 400.121 3278.16 398.073C3280.46 395.77 3284.04 394.619 3288.91 394.619H3348.41C3353.27 394.619 3356.72 395.77 3358.77 398.073C3361.07 400.121 3362.23 403.575 3362.23 408.438V491.736H3426.33V408.438C3426.33 403.575 3427.35 400.121 3429.4 398.073C3431.7 395.77 3435.29 394.619 3440.15 394.619H3499.65C3504.51 394.619 3507.97 395.77 3510.01 398.073C3512.32 400.121 3513.47 403.575 3513.47 408.438V657.181C3513.47 662.043 3512.32 665.626 3510.01 667.929C3507.97 669.976 3504.51 671 3499.65 671H3440.15C3435.29 671 3431.7 669.976 3429.4 667.929C3427.35 665.626 3426.33 662.043 3426.33 657.181V571.963H3362.23V657.181C3362.23 662.043 3361.07 665.626 3358.77 667.929C3356.72 669.976 3353.27 671 3348.41 671Z" fill="#403978"/>
<path d="M3154.41 705.548H3098.75C3093.88 705.548 3090.3 704.396 3088 702.093C3085.95 700.046 3084.93 696.591 3084.93 691.729V671H3032.34C3027.47 671 3023.89 669.976 3021.59 667.929C3019.54 665.626 3018.52 662.043 3018.52 657.181V612.269C3018.52 607.407 3019.54 603.952 3021.59 601.905C3023.89 599.601 3027.47 598.45 3032.34 598.45H3135.6C3138.92 598.45 3141.35 597.426 3142.89 595.379C3144.68 593.076 3145.58 590.389 3145.58 587.318C3145.58 582.967 3144.68 579.769 3142.89 577.721C3141.35 575.674 3138.92 574.522 3135.6 574.266L3078.02 566.205C3060.1 563.646 3045.64 557.76 3034.64 548.548C3023.89 539.335 3018.52 523.98 3018.52 502.484V462.178C3018.52 442.218 3024.4 426.607 3036.18 415.347C3047.95 403.831 3064.2 397.178 3084.93 395.386V373.89C3084.93 369.028 3085.95 365.573 3088 363.526C3090.3 361.222 3093.88 360.071 3098.75 360.071H3154.41C3159.27 360.071 3162.72 361.222 3164.77 363.526C3167.07 365.573 3168.22 369.028 3168.22 373.89V394.619H3205.46C3210.32 394.619 3213.78 395.77 3215.82 398.073C3218.13 400.121 3219.28 403.575 3219.28 408.438V454.117C3219.28 458.98 3218.13 462.562 3215.82 464.866C3213.78 466.913 3210.32 467.936 3205.46 467.936H3116.02C3112.69 467.936 3110.13 469.088 3108.34 471.391C3106.55 473.438 3105.65 476.125 3105.65 479.452C3105.65 482.779 3106.55 485.594 3108.34 487.897C3110.13 490.2 3112.69 491.48 3116.02 491.736L3173.21 499.413C3191.13 501.972 3205.59 507.858 3216.59 517.071C3227.6 526.284 3233.1 541.638 3233.1 563.134V603.44C3233.1 622.889 3227.34 638.372 3215.82 649.888C3204.31 661.403 3188.44 668.185 3168.22 670.232V691.729C3168.22 696.591 3167.07 700.046 3164.77 702.093C3162.72 704.396 3159.27 705.548 3154.41 705.548Z" fill="#109648"/>
<path d="M785.804 1062H726.306C721.443 1062 717.861 1060.98 715.557 1058.93C713.51 1056.63 712.487 1053.04 712.487 1048.18V799.438C712.487 794.575 713.51 791.121 715.557 789.073C717.861 786.77 721.443 785.619 726.306 785.619H785.804C790.667 785.619 794.121 786.77 796.169 789.073C798.472 791.121 799.623 794.575 799.623 799.438V882.736H863.729V799.438C863.729 794.575 864.752 791.121 866.8 789.073C869.103 786.77 872.685 785.619 877.548 785.619H937.046C941.909 785.619 945.364 786.77 947.411 789.073C949.714 791.121 950.866 794.575 950.866 799.438V1048.18C950.866 1053.04 949.714 1056.63 947.411 1058.93C945.364 1060.98 941.909 1062 937.046 1062H877.548C872.685 1062 869.103 1060.98 866.8 1058.93C864.752 1056.63 863.729 1053.04 863.729 1048.18V962.963H799.623V1048.18C799.623 1053.04 798.472 1056.63 796.169 1058.93C794.121 1060.98 790.667 1062 785.804 1062ZM1237.91 989.45C1237.91 1001.22 1236.12 1011.97 1232.54 1021.69C1229.21 1031.16 1223.07 1039.35 1214.11 1046.26C1205.41 1052.92 1193.26 1058.16 1177.65 1062C1162.29 1065.84 1142.72 1067.76 1118.92 1067.76C1095.12 1067.76 1075.41 1065.84 1059.8 1062C1044.19 1058.16 1031.91 1052.92 1022.95 1046.26C1014.25 1039.35 1008.11 1031.16 1004.53 1021.69C1001.2 1011.97 999.535 1001.22 999.535 989.45V858.553C999.535 846.781 1001.2 836.161 1004.53 826.692C1008.11 816.967 1014.25 808.65 1022.95 801.741C1031.91 794.831 1044.19 789.457 1059.8 785.619C1075.41 781.78 1095.12 779.861 1118.92 779.861C1142.72 779.861 1162.29 781.78 1177.65 785.619C1193.26 789.457 1205.41 794.831 1214.11 801.741C1223.07 808.65 1229.21 816.967 1232.54 826.692C1236.12 836.161 1237.91 846.781 1237.91 858.553V989.45ZM1086.67 975.631C1086.67 980.749 1088.59 985.099 1092.43 988.682C1096.27 992.009 1105.1 993.672 1118.92 993.672C1132.74 993.672 1141.56 992.009 1145.4 988.682C1149.24 985.099 1151.16 980.749 1151.16 975.631V872.372C1151.16 867.509 1149.24 863.415 1145.4 860.088C1141.56 856.505 1132.74 854.714 1118.92 854.714C1105.1 854.714 1096.27 856.505 1092.43 860.088C1088.59 863.415 1086.67 867.509 1086.67 872.372V975.631ZM1357.8 1062H1300.6C1295.74 1062 1292.16 1060.98 1289.85 1058.93C1287.81 1056.63 1286.78 1053.04 1286.78 1048.18V799.438C1286.78 794.575 1287.81 791.121 1289.85 789.073C1292.16 786.77 1295.74 785.619 1300.6 785.619H1362.4C1366.5 785.619 1369.82 786.514 1372.38 788.306C1375.2 790.097 1377.76 793.04 1380.06 797.134L1414.61 859.704C1415.89 862.007 1416.91 863.671 1417.68 864.694C1418.7 865.718 1419.98 866.23 1421.52 866.23H1424.97C1426.51 866.23 1427.66 865.718 1428.43 864.694C1429.45 863.671 1430.6 862.007 1431.88 859.704L1466.05 797.134C1468.35 793.04 1470.78 790.097 1473.34 788.306C1476.15 786.514 1479.61 785.619 1483.7 785.619H1545.89C1550.75 785.619 1554.21 786.77 1556.25 789.073C1558.56 791.121 1559.71 794.575 1559.71 799.438V1048.18C1559.71 1053.04 1558.56 1056.63 1556.25 1058.93C1554.21 1060.98 1550.75 1062 1545.89 1062H1486.77C1481.91 1062 1478.33 1060.98 1476.03 1058.93C1473.98 1056.63 1472.96 1053.04 1472.96 1048.18V913.061L1450.31 954.902C1448 959.253 1445.19 962.451 1441.86 964.499C1438.79 966.29 1434.82 967.186 1429.96 967.186H1414.61C1409.75 967.186 1405.65 966.29 1402.32 964.499C1399.25 962.451 1396.57 959.253 1394.26 954.902L1371.62 913.061V1048.18C1371.62 1053.04 1370.46 1056.63 1368.16 1058.93C1366.11 1060.98 1362.66 1062 1357.8 1062ZM1804.47 1062H1626.36C1621.5 1062 1617.91 1060.98 1615.61 1058.93C1613.56 1056.63 1612.54 1053.04 1612.54 1048.18V799.438C1612.54 794.575 1613.56 791.121 1615.61 789.073C1617.91 786.77 1621.5 785.619 1626.36 785.619H1804.47C1809.33 785.619 1812.79 786.77 1814.84 789.073C1817.14 791.121 1818.29 794.575 1818.29 799.438V844.35C1818.29 849.212 1817.14 852.795 1814.84 855.098C1812.79 857.145 1809.33 858.169 1804.47 858.169H1698.53V887.726H1773.38C1778.24 887.726 1781.7 888.878 1783.74 891.181C1786.05 893.228 1787.2 896.683 1787.2 901.545V942.619C1787.2 947.481 1786.05 951.064 1783.74 953.367C1781.7 955.414 1778.24 956.438 1773.38 956.438H1698.53V989.45H1804.47C1809.33 989.45 1812.79 990.601 1814.84 992.905C1817.14 994.952 1818.29 998.407 1818.29 1003.27V1048.18C1818.29 1053.04 1817.14 1056.63 1814.84 1058.93C1812.79 1060.98 1809.33 1062 1804.47 1062ZM2111.14 1062H1963.74C1958.88 1062 1955.29 1060.98 1952.99 1058.93C1950.94 1056.63 1949.92 1053.04 1949.92 1048.18V799.438C1949.92 794.575 1950.94 791.121 1952.99 789.073C1955.29 786.77 1958.88 785.619 1963.74 785.619H2086.19C2111.27 785.619 2129.82 790.481 2141.85 800.205C2153.88 809.674 2159.89 824.389 2159.89 844.35V862.775C2159.89 873.523 2157.97 882.352 2154.14 889.262C2150.55 895.915 2144.92 900.905 2137.25 904.232C2153.62 905.768 2165.78 911.398 2173.71 921.122C2181.65 930.847 2185.61 945.05 2185.61 963.731V999.046C2185.61 1020.54 2179.47 1036.41 2167.19 1046.65C2155.16 1056.88 2136.48 1062 2111.14 1062ZM2036.29 850.875V892.332H2068.92C2073.78 892.332 2077.36 891.053 2079.67 888.494C2082.23 885.935 2083.5 882.096 2083.5 876.978V866.23C2083.5 861.112 2082.23 857.273 2079.67 854.714C2077.36 852.155 2073.78 850.875 2068.92 850.875H2036.29ZM2036.29 951.447V996.743H2086.19C2091.05 996.743 2094.64 995.464 2096.94 992.905C2099.5 990.346 2100.78 986.507 2100.78 981.389V966.418C2100.78 961.3 2099.5 957.589 2096.94 955.286C2094.64 952.727 2091.05 951.447 2086.19 951.447H2036.29ZM2463.38 989.45C2463.38 1001.22 2461.59 1011.97 2458.01 1021.69C2454.68 1031.16 2448.54 1039.35 2439.58 1046.26C2430.88 1052.92 2418.85 1058.16 2403.5 1062C2388.14 1065.84 2368.56 1067.76 2344.77 1067.76C2320.97 1067.76 2301.39 1065.84 2286.03 1062C2270.68 1058.16 2258.52 1052.92 2249.57 1046.26C2240.87 1039.35 2234.72 1031.16 2231.14 1021.69C2227.82 1011.97 2226.15 1001.22 2226.15 989.45V799.438C2226.15 794.575 2227.18 791.121 2229.22 789.073C2231.53 786.77 2235.11 785.619 2239.97 785.619H2300.24C2305.1 785.619 2308.55 786.77 2310.6 789.073C2312.9 791.121 2314.06 794.575 2314.06 799.438V974.479C2314.06 979.597 2315.98 983.948 2319.81 987.531C2323.65 990.857 2332.23 992.521 2345.53 992.521C2359.1 992.521 2367.8 990.857 2371.64 987.531C2375.47 983.948 2377.39 979.597 2377.39 974.479V799.438C2377.39 794.575 2378.42 791.121 2380.46 789.073C2382.77 786.77 2386.35 785.619 2391.21 785.619H2449.56C2454.42 785.619 2457.88 786.77 2459.92 789.073C2462.23 791.121 2463.38 794.575 2463.38 799.438V989.45ZM2654.58 1062H2592.39C2587.53 1062 2583.95 1060.98 2581.64 1058.93C2579.6 1056.63 2578.57 1053.04 2578.57 1048.18V999.046L2519.84 920.355C2513.96 912.421 2509.99 905.512 2507.94 899.626C2506.15 893.74 2505.26 884.911 2505.26 873.139V799.438C2505.26 794.575 2506.28 791.121 2508.33 789.073C2510.63 786.77 2514.21 785.619 2519.08 785.619H2578.19C2583.05 785.619 2586.51 786.77 2588.55 789.073C2590.86 791.121 2592.01 794.575 2592.01 799.438V862.391C2592.01 864.95 2592.14 867.637 2592.39 870.452C2592.65 873.267 2593.67 875.954 2595.46 878.513L2613.12 906.152C2614.4 908.455 2615.68 910.118 2616.96 911.142C2618.5 912.165 2620.29 912.677 2622.33 912.677H2626.17C2628.22 912.677 2629.88 912.165 2631.16 911.142C2632.7 910.118 2634.11 908.455 2635.39 906.152L2653.04 878.513C2654.83 875.954 2655.86 873.267 2656.11 870.452C2656.37 867.637 2656.5 864.95 2656.5 862.391V799.438C2656.5 794.575 2657.52 791.121 2659.57 789.073C2661.87 786.77 2665.46 785.619 2670.32 785.619H2727.51C2732.38 785.619 2735.83 786.77 2737.88 789.073C2740.18 791.121 2741.33 794.575 2741.33 799.438V873.139C2741.33 884.911 2740.31 893.74 2738.26 899.626C2736.21 905.512 2732.38 912.421 2726.75 920.355L2668.4 999.43V1048.18C2668.4 1053.04 2667.25 1056.63 2664.94 1058.93C2662.9 1060.98 2659.44 1062 2654.58 1062ZM2977.05 1062H2798.94C2794.08 1062 2790.5 1060.98 2788.19 1058.93C2786.15 1056.63 2785.12 1053.04 2785.12 1048.18V799.438C2785.12 794.575 2786.15 791.121 2788.19 789.073C2790.5 786.77 2794.08 785.619 2798.94 785.619H2977.05C2981.92 785.619 2985.37 786.77 2987.42 789.073C2989.72 791.121 2990.87 794.575 2990.87 799.438V844.35C2990.87 849.212 2989.72 852.795 2987.42 855.098C2985.37 857.145 2981.92 858.169 2977.05 858.169H2871.11V887.726H2945.96C2950.82 887.726 2954.28 888.878 2956.33 891.181C2958.63 893.228 2959.78 896.683 2959.78 901.545V942.619C2959.78 947.481 2958.63 951.064 2956.33 953.367C2954.28 955.414 2950.82 956.438 2945.96 956.438H2871.11V989.45H2977.05C2981.92 989.45 2985.37 990.601 2987.42 992.905C2989.72 994.952 2990.87 998.407 2990.87 1003.27V1048.18C2990.87 1053.04 2989.72 1056.63 2987.42 1058.93C2985.37 1060.98 2981.92 1062 2977.05 1062ZM3123.04 854.714V903.848H3151.83C3158.48 903.848 3162.96 902.185 3165.26 898.858C3167.56 895.275 3168.72 890.925 3168.72 885.807V872.755C3168.72 867.637 3167.56 863.415 3165.26 860.088C3162.96 856.505 3158.48 854.714 3151.83 854.714H3123.04ZM3109.22 1062H3050.1C3045.24 1062 3041.66 1060.98 3039.35 1058.93C3037.31 1056.63 3036.28 1053.04 3036.28 1048.18V799.438C3036.28 794.575 3037.31 791.121 3039.35 789.073C3041.66 786.77 3045.24 785.619 3050.1 785.619H3177.93C3206.59 785.619 3226.29 791.632 3237.04 803.66C3248.05 815.432 3253.55 830.786 3253.55 849.724V867.381C3253.55 878.13 3251.89 887.342 3248.56 895.02C3245.49 902.441 3239.99 907.815 3232.05 911.142C3245.87 912.677 3257 918.307 3265.45 928.032C3274.15 937.756 3278.5 950.68 3278.5 966.802V1048.18C3278.5 1053.04 3277.35 1056.63 3275.05 1058.93C3273 1060.98 3269.54 1062 3264.68 1062H3205.18C3200.32 1062 3196.74 1060.98 3194.43 1058.93C3192.39 1056.63 3191.36 1053.04 3191.36 1048.18V989.45C3191.36 983.82 3190.21 979.725 3187.91 977.166C3185.86 974.351 3182.15 972.944 3176.78 972.944H3123.04V1048.18C3123.04 1053.04 3121.88 1056.63 3119.58 1058.93C3117.53 1060.98 3114.08 1062 3109.22 1062ZM3449.77 1062H3328.47C3323.6 1062 3320.02 1060.98 3317.72 1058.93C3315.67 1056.63 3314.65 1053.04 3314.65 1048.18V1003.27C3314.65 998.407 3315.67 994.952 3317.72 992.905C3320.02 990.601 3323.6 989.45 3328.47 989.45H3431.72C3435.05 989.45 3437.48 988.426 3439.02 986.379C3440.81 984.076 3441.71 981.389 3441.71 978.318C3441.71 973.967 3440.81 970.769 3439.02 968.721C3437.48 966.674 3435.05 965.522 3431.72 965.266L3374.15 957.205C3356.23 954.646 3341.77 948.76 3330.77 939.548C3320.02 930.335 3314.65 914.98 3314.65 893.484V853.178C3314.65 831.426 3321.68 814.792 3335.76 803.276C3349.83 791.504 3369.28 785.619 3394.11 785.619H3501.59C3506.45 785.619 3509.9 786.77 3511.95 789.073C3514.26 791.121 3515.41 794.575 3515.41 799.438V845.117C3515.41 849.98 3514.26 853.562 3511.95 855.866C3509.9 857.913 3506.45 858.936 3501.59 858.936H3412.15C3408.82 858.936 3406.26 860.088 3404.47 862.391C3402.68 864.438 3401.78 867.125 3401.78 870.452C3401.78 873.779 3402.68 876.594 3404.47 878.897C3406.26 881.2 3408.82 882.48 3412.15 882.736L3469.34 890.413C3487.26 892.972 3501.72 898.858 3512.72 908.071C3523.72 917.284 3529.23 932.638 3529.23 954.134V994.44C3529.23 1016.19 3522.06 1032.95 3507.73 1044.73C3493.65 1056.24 3474.33 1062 3449.77 1062Z" fill="#BD2239"/>
<path d="M115.841 1133.83C113.558 1139.11 117.43 1145 123.184 1145H315.595C318.849 1145 321.78 1143.03 323.006 1140.01L347.591 1079.55C349.731 1074.29 345.86 1068.54 340.181 1068.54H283.873C278.155 1068.54 274.283 1062.71 276.497 1057.44L516.51 485.915C518.724 480.643 514.853 474.817 509.134 474.817H138.361C135.295 474.817 132.499 476.57 131.162 479.329L49.566 647.742C46.9919 653.055 50.862 659.23 56.7655 659.23H308.805C314.559 659.23 318.431 665.123 316.148 670.404L115.841 1133.83Z" fill="url(#paint0_linear_710_22)"/>
<g filter="url(#filter0_d_710_22)">
<path d="M518.175 474.817H578.603C584.282 474.817 588.153 480.57 586.014 485.831L349.074 1068.54H460.103C463.317 1068.54 466.219 1066.61 467.471 1063.65L668.839 587.649C670.092 584.689 672.993 582.766 676.207 582.766H938.177C941.358 582.766 944.238 580.88 945.51 577.964L1018.95 409.551C1021.25 404.266 1017.38 398.353 1011.61 398.353H555.603C552.382 398.353 549.474 400.286 548.227 403.256L518.175 474.817Z" fill="url(#paint1_linear_710_22)"/>
<path d="M528.967 353.375C525.661 353.375 522.696 355.408 521.505 358.492L494.186 429.219C492.995 432.303 490.03 434.336 486.724 434.336H142.32C136.62 434.336 132.749 428.544 134.928 423.277L174.023 328.81C174.674 327.236 175.811 325.911 177.267 325.028L564.825 90.0194C566.927 88.7447 569.499 88.5073 571.799 89.3757L843.242 191.862C848.475 193.837 854.068 189.971 854.068 184.377V154.472C854.068 150.054 857.65 146.472 862.068 146.472H935.416C939.834 146.472 943.416 150.054 943.416 154.472V217.252C943.416 220.656 945.569 223.687 948.783 224.807L1051.68 260.669C1055.98 262.167 1058.17 266.946 1056.48 271.177L1025.83 348.328C1024.62 351.375 1021.68 353.375 1018.4 353.375H528.967Z" fill="url(#paint2_linear_710_22)"/>
<path d="M586.014 485.831C588.153 480.57 584.282 474.817 578.603 474.817H518.175L273.501 1057.44C271.287 1062.71 275.159 1068.54 280.877 1068.54H349.074L586.014 485.831Z" fill="url(#paint3_linear_710_22)"/>
</g>
</g>
<defs>
<filter id="filter0_d_710_22" x="131.892" y="88.8604" width="927.58" height="984.518" filterUnits="userSpaceOnUse" color-interpolation-filters="sRGB">
<feFlood flood-opacity="0" result="BackgroundImageFix"/>
<feColorMatrix in="SourceAlpha" type="matrix" values="0 0 0 0 0 0 0 0 0 0 0 0 0 0 0 0 0 0 127 0" result="hardAlpha"/>
<feOffset dy="2.42099"/>
<feGaussianBlur stdDeviation="1.21049"/>
<feComposite in2="hardAlpha" operator="out"/>
<feColorMatrix type="matrix" values="0 0 0 0 0 0 0 0 0 0 0 0 0 0 0 0 0 0 0.25 0"/>
<feBlend mode="normal" in2="BackgroundImageFix" result="effect1_dropShadow_710_22"/>
<feBlend mode="normal" in="SourceGraphic" in2="effect1_dropShadow_710_22" result="shape"/>
</filter>
<linearGradient id="paint0_linear_710_22" x1="282.585" y1="474.817" x2="282.585" y2="1145" gradientUnits="userSpaceOnUse">
<stop stop-color="#93294C"/>
<stop offset="1" stop-color="#D81F2E"/>
</linearGradient>
<linearGradient id="paint1_linear_710_22" x1="594.96" y1="88" x2="594.601" y2="746.77" gradientUnits="userSpaceOnUse">
<stop stop-color="#3C3573"/>
<stop offset="1" stop-color="#50488E"/>
</linearGradient>
<linearGradient id="paint2_linear_710_22" x1="594.96" y1="88" x2="594.601" y2="746.77" gradientUnits="userSpaceOnUse">
<stop stop-color="#3C3573"/>
<stop offset="1" stop-color="#50488E"/>
</linearGradient>
<linearGradient id="paint3_linear_710_22" x1="594.96" y1="88" x2="594.601" y2="746.77" gradientUnits="userSpaceOnUse">
<stop stop-color="#3C3573"/>
<stop offset="1" stop-color="#50488E"/>
</linearGradient>
<clipPath id="clip0_710_22">
<rect width="3622" height="1282" fill="white"/>
</clipPath>
</defs>
</svg>
